<?xml version="1.0" encoding="UTF-8"?>
<svg width="269px" height="57px" viewBox="0 0 269 57" version="1.1" xmlns="http://www.w3.org/2000/svg" xmlns:xlink="http://www.w3.org/1999/xlink">
    <!-- Generator: Sketch 48.2 (47327) - http://www.bohemiancoding.com/sketch -->
    <title>Group 2</title>
    <desc>Created with Sketch.</desc>
    <defs>
        <polyline id="path-1" points="0.0230656039 0.368337931 268.561284 0.368337931 268.561284 56.9764138 0.0230656039 56.9764138"></polyline>
    </defs>
    <g id="about" stroke="none" stroke-width="1" fill="none" fill-rule="evenodd" transform="translate(-254.000000, -34.000000)">
        <g id="Group-6">
            <g id="Group-2" transform="translate(254.000000, 34.000000)">
                <g id="Group-5">
                    <mask id="mask-2" fill="white">
                        <use xlink:href="#path-1"></use>
                    </mask>
                    <g id="Clip-2"></g>
                    <path d="M127.233716,40.0187172 C127.233716,30.3648828 122.51334,26.1413793 112.650872,22.952131 C108.436017,21.572731 103.293925,20.3659034 103.293925,17.0044759 C103.293925,14.246069 104.980021,13.0392414 107.50878,13.0392414 L108.941923,13.0392414 C111.807824,13.0392414 113.915251,14.5908207 115.432584,17.5214069 C115.769726,18.2109103 116.5282,18.2109103 117.118295,17.780069 L125.885147,11.8324138 C126.72781,11.3154828 126.390668,10.4534069 126.053525,9.93608276 C124.957909,8.03975172 123.608956,6.3159931 122.007434,4.9365931 C118.719817,2.0060069 114.252394,0.368337931 108.773159,0.368337931 L107.50878,0.368337931 C95.9602164,0.368337931 88.9640343,6.74683448 88.9640343,17.4353172 C88.9640343,27.0030621 94.0215524,30.7961172 103.040972,33.9857586 C108.68897,35.9677862 112.90344,36.4855034 112.90344,40.363469 C112.90344,42.8636069 111.217729,44.3290966 108.604396,44.3290966 L105.991448,44.3290966 C103.125546,44.3290966 101.018119,42.7775172 99.5007866,39.846931 C99.1636444,39.1574276 98.404786,39.1574276 97.814691,39.5878759 L89.0482238,45.5351379 C88.205176,46.0528552 88.5423182,46.8288414 88.8794605,47.3457724 C89.8066977,48.9834414 90.9026983,50.448931 92.2512673,51.7422414 C95.6230742,55.1032759 100.343834,57 106.159826,57 L108.773159,57 C120.658865,57 127.233716,50.6218966 127.233716,40.0187172" id="Fill-1" fill="#7D2D2E" mask="url(#mask-2)"></path>
                    <path d="M71.1781471,19.4177379 C71.1781471,21.7453034 69.5766254,22.8656483 66.9632925,22.8656483 L57.7751091,22.8656483 C57.0166352,22.8656483 56.7636824,22.5208966 56.7636824,21.9174828 L56.7636824,15.1081448 C56.7636824,14.504731 57.0166352,14.1599793 57.7751091,14.1599793 L66.9632925,14.1599793 C69.7450043,14.1599793 71.1781471,15.4528966 71.1781471,17.780069 L71.1781471,19.4177379 L71.1781471,19.4177379 Z M86.772802,54.7585241 L78.5118559,33.1232897 C78.2589031,32.3473034 78.1747137,31.7442828 78.9331876,31.2269586 C82.6421367,28.8129103 85.0867063,24.6758897 85.0867063,19.3316483 L85.0867063,18.5560552 C85.0867063,7.95366207 78.0059503,1.48868276 66.9632925,1.48868276 L43.4452183,1.48868276 C43.0235021,1.48868276 42.6863599,1.66125517 42.6863599,2.35075862 L42.6863599,55.0175793 C42.6863599,55.7066897 43.0235021,55.8796552 43.4452183,55.8796552 L55.9206346,55.8796552 C56.3423507,55.8796552 56.7636824,55.7066897 56.7636824,55.0175793 L56.7636824,35.6234276 C56.7636824,35.0196207 57.0166352,34.674869 57.7751091,34.674869 L63.5914856,34.674869 C63.9286278,34.674869 64.1815806,34.8470483 64.350344,35.2786759 L72.1053844,55.2762414 C72.2737633,55.6209931 72.5267161,55.8796552 72.8638584,55.8796552 L86.0139436,55.8796552 C86.8569914,55.8796552 87.0253703,55.3619379 86.772802,54.7585241 L86.772802,54.7585241 Z" id="Fill-3" fill="#6C832E" mask="url(#mask-2)"></path>
                    <path d="M36.5339945,39.3292138 L36.5339945,2.35075862 C36.5339945,1.66125517 36.1126628,1.48868276 35.7755205,1.48868276 L23.3842937,1.48868276 C22.9625776,1.48868276 22.5412459,1.66125517 22.5412459,2.35075862 L22.5412459,40.5364345 C22.5412459,42.6906414 21.2768663,44.0704345 18.7481073,44.0704345 C15.8818216,44.0704345 14.1961104,42.0880138 13.1001097,38.8987655 C12.847157,38.2949586 12.4258253,38.0362966 11.6673513,38.3810483 L0.455930104,43.380931 C0.0345984059,43.5527172 -0.134164929,43.9835586 0.11878786,44.5869724 C0.877261803,46.4836966 1.72030963,48.1221517 2.81631024,49.5868552 C6.18811711,54.2419862 11.3298246,56.7409448 18.0738228,56.7409448 C29.9591441,56.7409448 36.5339945,50.3632345 36.5339945,39.3292138" id="Fill-4" fill="#00727B" mask="url(#mask-2)"></path>
                </g>
                <path d="M258.575415,55.8635379 L258.575415,42.0526345 C259.407699,41.4307448 260.111584,40.9393655 260.879669,40.9393655 C261.647754,40.9393655 262.15981,41.332469 262.15981,42.2161655 L262.15981,55.8635379 L265.744589,55.8635379 L265.744589,41.6272966 C265.744589,39.3362897 264.62437,37.9289793 262.736066,37.9289793 C260.655548,37.9289793 259.887464,38.7144 258.383202,40.0234345 L258.383202,38.2560414 L254.990636,38.2560414 L254.990636,55.8635379 L258.575415,55.8635379 L258.575415,55.8635379 Z M239.948787,49.6454276 C239.948787,53.5072759 241.421141,56.1913862 245.517977,56.1913862 C249.614428,56.1913862 251.086782,53.5072759 251.086782,49.6454276 L251.086782,44.4741517 C251.086782,40.6130897 249.614428,37.9289793 245.517977,37.9289793 C241.421141,37.9289793 239.948787,40.6130897 239.948787,44.4741517 L239.948787,49.6454276 L239.948787,49.6454276 Z M247.502003,50.3003379 C247.502003,52.3295379 246.798118,53.1802138 245.517977,53.1802138 C244.237451,53.1802138 243.533566,52.3295379 243.533566,50.3003379 L243.533566,43.8200276 C243.533566,41.7908276 244.237451,40.9393655 245.517977,40.9393655 C246.798118,40.9393655 247.502003,41.7908276 247.502003,43.8200276 L247.502003,50.3003379 L247.502003,50.3003379 Z M232.428246,35.5727172 L236.012641,35.5727172 L236.012641,32.2344828 L232.428246,32.2344828 L232.428246,35.5727172 Z M232.428246,55.8635379 L236.012641,55.8635379 L236.012641,38.2560414 L232.428246,38.2560414 L232.428246,55.8635379 Z M223.434968,41.2672138 L223.434968,52.2312621 C223.434968,54.9145862 224.939229,56.1913862 227.627525,56.1913862 C228.523624,56.1913862 228.939574,56.1253448 229.419723,55.9948345 L229.419723,52.8531517 L228.235689,52.8531517 C227.403405,52.8531517 227.019362,52.3295379 227.019362,51.4128207 L227.019362,41.2672138 L229.419723,41.2672138 L229.419723,38.2560414 L227.019362,38.2560414 L227.019362,33.5108897 L223.434968,33.5108897 L223.434968,38.2560414 L221.450557,38.2560414 L221.450557,41.2672138 L223.434968,41.2672138 L223.434968,41.2672138 Z M215.017944,51.5441172 C214.409781,52.4270276 213.609789,53.1802138 212.617584,53.1802138 C211.529272,53.1802138 210.9534,52.7218552 210.9534,51.5763517 C210.9534,50.038531 211.753392,48.8265931 215.017944,46.9286897 L215.017944,51.5441172 L215.017944,51.5441172 Z M211.209429,43.4269241 C211.273243,41.9213379 211.625378,40.9393655 213.257654,40.9393655 C214.441689,40.9393655 215.017944,41.7247862 215.017944,43.1981379 L215.017944,44.2453655 C209.865088,46.2415448 207.368621,48.3690207 207.368621,52.2312621 C207.368621,54.4892483 208.584947,56.1913862 211.017215,56.1913862 C212.745598,56.1913862 213.865817,55.601731 215.210158,54.4892483 C215.242065,54.9145862 215.370079,55.3729448 215.401987,55.8635379 L218.82646,55.8635379 C218.730738,55.274669 218.602723,54.5545034 218.602723,53.9986552 L218.602723,42.7067586 C218.602723,39.4998207 216.714419,37.9289793 213.385668,37.9289793 C210.02501,37.9289793 207.816863,39.8599034 207.624649,43.4269241 L211.209429,43.4269241 L211.209429,43.4269241 Z M200.32823,52.2634966 C199.62396,52.7871103 198.98389,53.1802138 198.27962,53.1802138 C197.319706,53.1802138 196.551622,52.6566 196.551622,50.3325724 L196.551622,43.7870069 C196.551622,41.4629793 197.319706,40.9393655 198.27962,40.9393655 C198.98389,40.9393655 199.62396,41.332469 200.32823,41.8560828 L200.32823,52.2634966 L200.32823,52.2634966 Z M203.912625,55.8635379 L203.912625,32.2340897 L200.32823,32.2340897 L200.32823,39.7616276 C198.920075,38.5838897 198.183898,37.9289793 196.615437,37.9289793 C194.375382,37.9289793 192.966842,39.6311172 192.966842,42.8380552 L192.966842,51.2815241 C192.966842,54.4892483 194.375382,56.1913862 196.615437,56.1913862 C198.408018,56.1913862 199.271825,55.5694966 200.456244,54.0308897 L200.520059,54.0308897 L200.520059,55.8635379 L203.912625,55.8635379 L203.912625,55.8635379 Z M181.893815,55.8635379 L181.893815,42.0526345 C182.725714,41.4307448 183.429984,40.9393655 184.198069,40.9393655 C184.966153,40.9393655 185.47821,41.332469 185.47821,42.2161655 L185.47821,55.8635379 L189.062989,55.8635379 L189.062989,41.6272966 C189.062989,39.3362897 187.942769,37.9289793 186.054465,37.9289793 C183.973948,37.9289793 183.205863,38.7144 181.701601,40.0234345 L181.701601,38.2560414 L178.309036,38.2560414 L178.309036,55.8635379 L181.893815,55.8635379 L181.893815,55.8635379 Z M170.628574,38.2560414 L170.628574,52.067731 C169.796674,52.6888345 169.09202,53.1802138 168.323936,53.1802138 C167.555851,53.1802138 167.043795,52.7871103 167.043795,51.9034138 L167.043795,38.2560414 L163.4594,38.2560414 L163.4594,52.493069 C163.4594,54.7840759 164.579619,56.1913862 166.467923,56.1913862 C168.548056,56.1913862 169.316141,55.4051793 170.820403,54.0961448 L170.820403,55.8635379 L174.212969,55.8635379 L174.212969,38.2560414 L170.628574,38.2560414 L170.628574,38.2560414 Z M148.417551,49.6454276 C148.417551,53.5072759 149.889521,56.1913862 153.986356,56.1913862 C158.082807,56.1913862 159.555162,53.5072759 159.555162,49.6454276 L159.555162,44.4741517 C159.555162,40.6130897 158.082807,37.9289793 153.986356,37.9289793 C149.889521,37.9289793 148.417551,40.6130897 148.417551,44.4741517 L148.417551,49.6454276 L148.417551,49.6454276 Z M155.970767,50.3003379 C155.970767,52.3295379 155.266497,53.1802138 153.986356,53.1802138 C152.706215,53.1802138 152.001945,52.3295379 152.001945,50.3003379 L152.001945,43.8200276 C152.001945,41.7908276 152.706215,40.9393655 153.986356,40.9393655 C155.266497,40.9393655 155.970767,41.7908276 155.970767,43.8200276 L155.970767,50.3003379 L155.970767,50.3003379 Z M137.920394,55.8635379 L137.920394,45.390869 L143.233172,45.390869 L143.233172,41.8560828 L137.920394,41.8560828 L137.920394,35.769269 L145.025369,35.769269 L145.025369,32.2340897 L133.951573,32.2340897 L133.951573,55.8635379 L137.920394,55.8635379 L137.920394,55.8635379 Z" id="Fill-6" fill="#414241"></path>
                <path d="M262.768357,21.1112276 L262.704158,21.1112276 L260.399904,9.85313793 L256.75131,9.85313793 L260.496011,24.8095448 C260.719747,25.6602207 260.880053,26.4130138 260.880053,27.1331793 C260.880053,28.9984552 260.303798,29.9804276 258.5116,29.9804276 L257.647409,29.9804276 L257.647409,32.9912069 L259.151671,32.9912069 C261.839967,32.9912069 263.280414,31.9762138 264.048498,28.769669 L268.561284,9.85313793 L264.944597,9.85313793 L262.768357,21.1112276 L262.768357,21.1112276 Z M249.838164,12.8639172 L249.838164,23.8275724 C249.838164,26.5112897 251.342426,27.7876966 254.030722,27.7876966 C254.927205,27.7876966 255.343155,27.7220483 255.823304,27.5911448 L255.823304,24.4494621 L254.638885,24.4494621 C253.806986,24.4494621 253.422944,23.9258483 253.422944,23.0095241 L253.422944,12.8639172 L255.823304,12.8639172 L255.823304,9.85313793 L253.422944,9.85313793 L253.422944,5.1075931 L249.838164,5.1075931 L249.838164,9.85313793 L247.853754,9.85313793 L247.853754,12.8639172 L249.838164,12.8639172 L249.838164,12.8639172 Z M242.18961,7.16942069 L245.774005,7.16942069 L245.774005,3.83118621 L242.18961,3.83118621 L242.18961,7.16942069 Z M242.18961,27.4602414 L245.774005,27.4602414 L245.774005,9.85313793 L242.18961,9.85313793 L242.18961,27.4602414 Z M239.277193,14.2059724 C238.733229,11.4566069 236.844925,9.52568276 234.028615,9.52568276 C231.339934,9.52568276 229.227894,11.4566069 229.227894,14.2386 C229.227894,19.0494 235.948826,20.1949034 235.948826,23.2387034 C235.948826,24.2202828 235.276849,24.7769172 234.348458,24.7769172 C232.716182,24.7769172 232.204126,23.4674897 231.980005,21.9949241 L228.843467,22.8786207 C229.387815,25.9550483 231.180013,27.7876966 234.316166,27.7876966 C237.228968,27.7876966 239.341392,26.1842276 239.341392,23.0421517 C239.341392,17.8060138 232.620075,16.6931379 232.620075,13.9441655 C232.620075,13.0274483 233.26053,12.5368552 234.188536,12.5368552 C235.340663,12.5368552 235.980734,13.3222759 236.236762,14.7295862 L239.277193,14.2059724 L239.277193,14.2059724 Z M222.634975,27.4602414 L222.634975,15.3510828 C222.634975,13.7802414 223.81901,12.9948207 225.035336,12.9948207 C226.091356,12.9948207 226.699519,13.1913724 227.33959,13.3549034 L227.33959,9.52568276 L226.603413,9.52568276 C224.907322,9.52568276 223.40306,10.4093793 222.538869,11.9149655 L222.475054,11.9149655 L222.475054,9.85313793 L219.050196,9.85313793 L219.050196,27.4602414 L222.634975,27.4602414 L222.634975,27.4602414 Z M215.786413,16.0712483 C215.786413,12.2094 214.314059,9.52568276 210.217608,9.52568276 C206.120772,9.52568276 204.648418,12.2094 204.648418,16.0712483 L204.648418,21.242131 C204.648418,25.1039793 206.120772,27.7876966 210.217608,27.7876966 C214.217952,27.7876966 215.722214,25.2348828 215.786413,21.5039379 L212.201634,21.5039379 L212.201634,21.8966483 C212.201634,23.9258483 211.497749,24.7769172 210.217608,24.7769172 C208.937082,24.7769172 208.233197,23.9258483 208.233197,21.8966483 L208.233197,19.3438345 L215.786413,19.3438345 L215.786413,16.0712483 L215.786413,16.0712483 Z M208.233197,16.3330552 L208.233197,15.416731 C208.233197,13.387531 208.937082,12.5368552 210.217608,12.5368552 C211.497749,12.5368552 212.201634,13.387531 212.201634,15.416731 L212.201634,16.3330552 L208.233197,16.3330552 L208.233197,16.3330552 Z M196.903757,21.6348414 L196.839557,21.6348414 L194.63141,9.85313793 L190.982816,9.85313793 L195.143467,27.4602414 L198.631755,27.4602414 L202.79279,9.85313793 L199.143811,9.85313793 L196.903757,21.6348414 L196.903757,21.6348414 Z M185.318288,7.16942069 L188.902683,7.16942069 L188.902683,3.83118621 L185.318288,3.83118621 L185.318288,7.16942069 Z M185.318288,27.4602414 L188.902683,27.4602414 L188.902683,9.85313793 L185.318288,9.85313793 L185.318288,27.4602414 Z M178.245605,23.8602 C177.541335,24.3842069 176.901265,24.7769172 176.19738,24.7769172 C175.237082,24.7769172 174.468997,24.2533034 174.468997,21.9292759 L174.468997,15.3841034 C174.468997,13.060469 175.237082,12.5368552 176.19738,12.5368552 C176.901265,12.5368552 177.541335,12.9295655 178.245605,13.4531793 L178.245605,23.8602 L178.245605,23.8602 Z M181.830384,27.4602414 L181.830384,3.83118621 L178.245605,3.83118621 L178.245605,11.358331 C176.83745,10.1802 176.101273,9.52568276 174.533196,9.52568276 C172.292757,9.52568276 170.884602,11.2274276 170.884602,14.4347586 L170.884602,22.8786207 C170.884602,26.0859517 172.292757,27.7876966 174.533196,27.7876966 C176.325394,27.7876966 177.189585,27.1658069 178.373619,25.6275931 L178.437819,25.6275931 L178.437819,27.4602414 L181.830384,27.4602414 L181.830384,27.4602414 Z M156.674652,21.242131 C156.674652,25.1039793 158.147007,27.7876966 162.243458,27.7876966 C166.340294,27.7876966 167.812648,25.1039793 167.812648,21.242131 L167.812648,16.0712483 C167.812648,12.2094 166.340294,9.52568276 162.243458,9.52568276 C158.147007,9.52568276 156.674652,12.2094 156.674652,16.0712483 L156.674652,21.242131 L156.674652,21.242131 Z M164.227869,21.8966483 C164.227869,23.9258483 163.523599,24.7769172 162.243458,24.7769172 C160.963317,24.7769172 160.259432,23.9258483 160.259432,21.8966483 L160.259432,15.416731 C160.259432,13.387531 160.963317,12.5368552 162.243458,12.5368552 C163.523599,12.5368552 164.227869,13.387531 164.227869,15.416731 L164.227869,21.8966483 L164.227869,21.8966483 Z M149.794183,7.16942069 L153.378578,7.16942069 L153.378578,3.83118621 L149.794183,3.83118621 L149.794183,7.16942069 Z M149.794183,27.4602414 L153.378578,27.4602414 L153.378578,9.85313793 L149.794183,9.85313793 L149.794183,27.4602414 Z M133.951573,27.4602414 L140.224648,27.4602414 C144.737433,27.4602414 146.433524,24.5151103 146.433524,20.6202414 C146.433524,17.5768345 145.24949,15.9403448 143.233172,15.0240207 C145.153383,14.2386 145.985667,12.1111241 145.985667,10.0823172 C145.985667,6.05654483 144.097363,3.83118621 139.840606,3.83118621 L133.951573,3.83118621 L133.951573,27.4602414 L133.951573,27.4602414 Z M137.920394,7.16942069 L139.424656,7.16942069 C141.184562,7.16942069 142.016845,8.31492414 142.016845,10.5076552 C142.016845,12.4712069 140.864719,13.5184345 139.360457,13.5184345 L137.920394,13.5184345 L137.920394,7.16942069 L137.920394,7.16942069 Z M137.920394,16.856669 L139.200535,16.856669 C141.568988,16.856669 142.465087,18.0678207 142.465087,20.4893379 C142.465087,22.8786207 141.697002,24.1224 139.584578,24.1224 L137.920394,24.1224 L137.920394,16.856669 L137.920394,16.856669 Z" id="Fill-7" fill="#414241"></path>
            </g>
        </g>
    </g>
</svg>